<svg height='100px' width='100px'  fill="#000000" xmlns:x="http://ns.adobe.com/Extensibility/1.0/" xmlns:i="http://ns.adobe.com/AdobeIllustrator/10.0/" xmlns:graph="http://ns.adobe.com/Graphs/1.0/" xmlns="http://www.w3.org/2000/svg" xmlns:xlink="http://www.w3.org/1999/xlink" version="1.1" x="0px" y="0px" viewBox="0 0 100 100" enable-background="new 0 0 100 100" xml:space="preserve"><g><g i:extraneous="self"><g><g><path stroke="#000000" stroke-width="0.25" stroke-miterlimit="10" d="M99.566,50.217C99.566,77.712,77.281,100,49.785,100      C22.288,100,0,77.712,0,50.217C0,22.719,22.288,0.433,49.785,0.433C77.281,0.433,99.566,22.719,99.566,50.217z M49.643,5.149      c-24.891,0-45.066,20.173-45.066,45.066c0,24.895,20.175,45.069,45.066,45.069c24.896,0,45.068-20.174,45.068-45.069      C94.711,25.322,74.539,5.149,49.643,5.149z"></path><circle cx="31.595" cy="34.396" r="6.635"></circle><circle cx="67.261" cy="34.396" r="6.635"></circle></g><polygon points="40.762,56.709 49.782,65.731 58.806,56.709 64.382,62.285 55.36,71.305 64.382,80.328 58.806,85.904      49.782,76.884 40.762,85.904 35.186,80.328 44.209,71.305 35.186,62.285    "></polygon></g></g></g></svg>